<?xml version="1.0" encoding="utf-8" standalone="no"?>
<!DOCTYPE svg PUBLIC "-//W3C//DTD SVG 1.1//EN"
  "http://www.w3.org/Graphics/SVG/1.1/DTD/svg11.dtd">
<svg xmlns:xlink="http://www.w3.org/1999/xlink" width="576pt" height="360pt" viewBox="0 0 576 360" xmlns="http://www.w3.org/2000/svg" version="1.1">
 <metadata>
  <rdf:RDF xmlns:dc="http://purl.org/dc/elements/1.1/" xmlns:cc="http://creativecommons.org/ns#" xmlns:rdf="http://www.w3.org/1999/02/22-rdf-syntax-ns#">
   <cc:Work>
    <dc:type rdf:resource="http://purl.org/dc/dcmitype/StillImage"/>
    <dc:date>2026-09-16T19:02:26.460107</dc:date>
    <dc:format>image/svg+xml</dc:format>
    <dc:creator>
     <cc:Agent>
      <dc:title>Matplotlib v3.10.3, https://matplotlib.org/</dc:title>
     </cc:Agent>
    </dc:creator>
   </cc:Work>
  </rdf:RDF>
 </metadata>
 <defs>
  <style type="text/css">*{stroke-linejoin: round; stroke-linecap: butt}</style>
 </defs>
 <g id="figure_1">
  <g id="patch_1">
   <path d="M 0 360 
L 576 360 
L 576 0 
L 0 0 
z
" style="fill: #ffffff"/>
  </g>
  <g id="axes_1">
   <g id="patch_2">
    <path d="M 50.87 314.728 
L 565.2 314.728 
L 565.2 26.88 
L 50.87 26.88 
z
" style="fill: #ffffff"/>
   </g>
   <g id="patch_3">
    <path d="M 74.248636 314.728 
L 86.237681 314.728 
L 86.237681 314.728 
L 74.248636 314.728 
z
" clip-path="url(#p62bf6f1fa2)" style="fill: #1f77b4"/>
   </g>
   <g id="patch_4">
    <path d="M 86.237681 314.728 
L 98.226725 314.728 
L 98.226725 314.728 
L 86.237681 314.728 
z
" clip-path="url(#p62bf6f1fa2)" style="fill: #1f77b4"/>
   </g>
   <g id="patch_5">
    <path d="M 98.226725 314.728 
L 110.215769 314.728 
L 110.215769 314.728 
L 98.226725 314.728 
z
" clip-path="url(#p62bf6f1fa2)" style="fill: #1f77b4"/>
   </g>
   <g id="patch_6">
    <path d="M 110.215769 314.728 
L 122.204814 314.728 
L 122.204814 298.347537 
L 110.215769 298.347537 
z
" clip-path="url(#p62bf6f1fa2)" style="fill: #1f77b4"/>
   </g>
   <g id="patch_7">
    <path d="M 122.204814 314.728 
L 134.193858 314.728 
L 134.193858 314.728 
L 122.204814 314.728 
z
" clip-path="url(#p62bf6f1fa2)" style="fill: #1f77b4"/>
   </g>
   <g id="patch_8">
    <path d="M 134.193858 314.728 
L 146.182902 314.728 
L 146.182902 314.728 
L 134.193858 314.728 
z
" clip-path="url(#p62bf6f1fa2)" style="fill: #1f77b4"/>
   </g>
   <g id="patch_9">
    <path d="M 146.182902 314.728 
L 158.171946 314.728 
L 158.171946 291.5481 
L 146.182902 291.5481 
z
" clip-path="url(#p62bf6f1fa2)" style="fill: #1f77b4"/>
   </g>
   <g id="patch_10">
    <path d="M 158.171946 314.728 
L 170.160991 314.728 
L 170.160991 286.293989 
L 158.171946 286.293989 
z
" clip-path="url(#p62bf6f1fa2)" style="fill: #1f77b4"/>
   </g>
   <g id="patch_11">
    <path d="M 170.160991 314.728 
L 182.150035 314.728 
L 182.150035 314.728 
L 170.160991 314.728 
z
" clip-path="url(#p62bf6f1fa2)" style="fill: #1f77b4"/>
   </g>
   <g id="patch_12">
    <path d="M 182.150035 314.728 
L 194.139079 314.728 
L 194.139079 275.476702 
L 182.150035 275.476702 
z
" clip-path="url(#p62bf6f1fa2)" style="fill: #1f77b4"/>
   </g>
   <g id="patch_13">
    <path d="M 194.139079 314.728 
L 206.128124 314.728 
L 206.128124 269.604461 
L 194.139079 269.604461 
z
" clip-path="url(#p62bf6f1fa2)" style="fill: #1f77b4"/>
   </g>
   <g id="patch_14">
    <path d="M 206.128124 314.728 
L 218.117168 314.728 
L 218.117168 229.116902 
L 206.128124 229.116902 
z
" clip-path="url(#p62bf6f1fa2)" style="fill: #1f77b4"/>
   </g>
   <g id="patch_15">
    <path d="M 218.117168 314.728 
L 230.106212 314.728 
L 230.106212 255.07839 
L 218.117168 255.07839 
z
" clip-path="url(#p62bf6f1fa2)" style="fill: #1f77b4"/>
   </g>
   <g id="patch_16">
    <path d="M 230.106212 314.728 
L 242.095256 314.728 
L 242.095256 218.917746 
L 230.106212 218.917746 
z
" clip-path="url(#p62bf6f1fa2)" style="fill: #1f77b4"/>
   </g>
   <g id="patch_17">
    <path d="M 242.095256 314.728 
L 254.084301 314.728 
L 254.084301 175.648599 
L 242.095256 175.648599 
z
" clip-path="url(#p62bf6f1fa2)" style="fill: #1f77b4"/>
   </g>
   <g id="patch_18">
    <path d="M 254.084301 314.728 
L 266.073345 314.728 
L 266.073345 212.427374 
L 254.084301 212.427374 
z
" clip-path="url(#p62bf6f1fa2)" style="fill: #1f77b4"/>
   </g>
   <g id="patch_19">
    <path d="M 266.073345 314.728 
L 278.062389 314.728 
L 278.062389 145.669262 
L 266.073345 145.669262 
z
" clip-path="url(#p62bf6f1fa2)" style="fill: #1f77b4"/>
   </g>
   <g id="patch_20">
    <path d="M 278.062389 314.728 
L 290.051434 314.728 
L 290.051434 127.125341 
L 278.062389 127.125341 
z
" clip-path="url(#p62bf6f1fa2)" style="fill: #1f77b4"/>
   </g>
   <g id="patch_21">
    <path d="M 290.051434 314.728 
L 302.040478 314.728 
L 302.040478 133.615714 
L 290.051434 133.615714 
z
" clip-path="url(#p62bf6f1fa2)" style="fill: #1f77b4"/>
   </g>
   <g id="patch_22">
    <path d="M 302.040478 314.728 
L 314.029522 314.728 
L 314.029522 40.587048 
L 302.040478 40.587048 
z
" clip-path="url(#p62bf6f1fa2)" style="fill: #1f77b4"/>
   </g>
   <g id="patch_23">
    <path d="M 314.029522 314.728 
L 326.018566 314.728 
L 326.018566 44.604897 
L 314.029522 44.604897 
z
" clip-path="url(#p62bf6f1fa2)" style="fill: #1f77b4"/>
   </g>
   <g id="patch_24">
    <path d="M 326.018566 314.728 
L 338.007611 314.728 
L 338.007611 81.074607 
L 326.018566 81.074607 
z
" clip-path="url(#p62bf6f1fa2)" style="fill: #1f77b4"/>
   </g>
   <g id="patch_25">
    <path d="M 338.007611 314.728 
L 349.996655 314.728 
L 349.996655 79.220215 
L 338.007611 79.220215 
z
" clip-path="url(#p62bf6f1fa2)" style="fill: #1f77b4"/>
   </g>
   <g id="patch_26">
    <path d="M 349.996655 314.728 
L 361.985699 314.728 
L 361.985699 127.434407 
L 349.996655 127.434407 
z
" clip-path="url(#p62bf6f1fa2)" style="fill: #1f77b4"/>
   </g>
   <g id="patch_27">
    <path d="M 361.985699 314.728 
L 373.974744 314.728 
L 373.974744 147.523654 
L 361.985699 147.523654 
z
" clip-path="url(#p62bf6f1fa2)" style="fill: #1f77b4"/>
   </g>
   <g id="patch_28">
    <path d="M 373.974744 314.728 
L 385.963788 314.728 
L 385.963788 181.829906 
L 373.974744 181.829906 
z
" clip-path="url(#p62bf6f1fa2)" style="fill: #1f77b4"/>
   </g>
   <g id="patch_29">
    <path d="M 385.963788 314.728 
L 397.952832 314.728 
L 397.952832 219.844942 
L 385.963788 219.844942 
z
" clip-path="url(#p62bf6f1fa2)" style="fill: #1f77b4"/>
   </g>
   <g id="patch_30">
    <path d="M 397.952832 314.728 
L 409.941876 314.728 
L 409.941876 237.461666 
L 397.952832 237.461666 
z
" clip-path="url(#p62bf6f1fa2)" style="fill: #1f77b4"/>
   </g>
   <g id="patch_31">
    <path d="M 409.941876 314.728 
L 421.930921 314.728 
L 421.930921 262.495958 
L 409.941876 262.495958 
z
" clip-path="url(#p62bf6f1fa2)" style="fill: #1f77b4"/>
   </g>
   <g id="patch_32">
    <path d="M 421.930921 314.728 
L 433.919965 314.728 
L 433.919965 273.62231 
L 421.930921 273.62231 
z
" clip-path="url(#p62bf6f1fa2)" style="fill: #1f77b4"/>
   </g>
   <g id="patch_33">
    <path d="M 433.919965 314.728 
L 445.909009 314.728 
L 445.909009 281.658009 
L 433.919965 281.658009 
z
" clip-path="url(#p62bf6f1fa2)" style="fill: #1f77b4"/>
   </g>
   <g id="patch_34">
    <path d="M 445.909009 314.728 
L 457.898054 314.728 
L 457.898054 294.638753 
L 445.909009 294.638753 
z
" clip-path="url(#p62bf6f1fa2)" style="fill: #1f77b4"/>
   </g>
   <g id="patch_35">
    <path d="M 457.898054 314.728 
L 469.887098 314.728 
L 469.887098 298.965668 
L 457.898054 298.965668 
z
" clip-path="url(#p62bf6f1fa2)" style="fill: #1f77b4"/>
   </g>
   <g id="patch_36">
    <path d="M 469.887098 314.728 
L 481.876142 314.728 
L 481.876142 307.001367 
L 469.887098 307.001367 
z
" clip-path="url(#p62bf6f1fa2)" style="fill: #1f77b4"/>
   </g>
   <g id="patch_37">
    <path d="M 481.876142 314.728 
L 493.865186 314.728 
L 493.865186 303.292583 
L 481.876142 303.292583 
z
" clip-path="url(#p62bf6f1fa2)" style="fill: #1f77b4"/>
   </g>
   <g id="patch_38">
    <path d="M 493.865186 314.728 
L 505.854231 314.728 
L 505.854231 305.146975 
L 493.865186 305.146975 
z
" clip-path="url(#p62bf6f1fa2)" style="fill: #1f77b4"/>
   </g>
   <g id="patch_39">
    <path d="M 505.854231 314.728 
L 517.843275 314.728 
L 517.843275 302.983517 
L 505.854231 302.983517 
z
" clip-path="url(#p62bf6f1fa2)" style="fill: #1f77b4"/>
   </g>
   <g id="patch_40">
    <path d="M 517.843275 314.728 
L 529.832319 314.728 
L 529.832319 310.401085 
L 517.843275 310.401085 
z
" clip-path="url(#p62bf6f1fa2)" style="fill: #1f77b4"/>
   </g>
   <g id="patch_41">
    <path d="M 529.832319 314.728 
L 541.821364 314.728 
L 541.821364 312.873608 
L 529.832319 312.873608 
z
" clip-path="url(#p62bf6f1fa2)" style="fill: #1f77b4"/>
   </g>
   <g id="matplotlib.axis_1">
    <g id="xtick_1">
     <g id="line2d_1">
      <defs>
       <path id="m2f765629da" d="M 0 0 
L 0 3.5 
" style="stroke: #000000; stroke-width: 0.8"/>
      </defs>
      <g>
       <use xlink:href="#m2f765629da" x="148.719949" y="314.728" style="stroke: #000000; stroke-width: 0.8"/>
      </g>
     </g>
     <g id="text_1">
      <!-- $\mathdefault{10^{-1}}$ -->
      <g transform="translate(136.969949 329.326437) scale(0.1 -0.1)">
       <defs>
        <path id="DejaVuSans-31" d="M 794 531 
L 1825 531 
L 1825 4091 
L 703 3866 
L 703 4441 
L 1819 4666 
L 2450 4666 
L 2450 531 
L 3481 531 
L 3481 0 
L 794 0 
L 794 531 
z
" transform="scale(0.015625)"/>
        <path id="DejaVuSans-30" d="M 2034 4250 
Q 1547 4250 1301 3770 
Q 1056 3291 1056 2328 
Q 1056 1369 1301 889 
Q 1547 409 2034 409 
Q 2525 409 2770 889 
Q 3016 1369 3016 2328 
Q 3016 3291 2770 3770 
Q 2525 4250 2034 4250 
z
M 2034 4750 
Q 2819 4750 3233 4129 
Q 3647 3509 3647 2328 
Q 3647 1150 3233 529 
Q 2819 -91 2034 -91 
Q 1250 -91 836 529 
Q 422 1150 422 2328 
Q 422 3509 836 4129 
Q 1250 4750 2034 4750 
z
" transform="scale(0.015625)"/>
        <path id="DejaVuSans-2212" d="M 678 2272 
L 4684 2272 
L 4684 1741 
L 678 1741 
L 678 2272 
z
" transform="scale(0.015625)"/>
       </defs>
       <use xlink:href="#DejaVuSans-31" transform="translate(0 0.684375)"/>
       <use xlink:href="#DejaVuSans-30" transform="translate(63.623047 0.684375)"/>
       <use xlink:href="#DejaVuSans-2212" transform="translate(128.203125 38.965625) scale(0.7)"/>
       <use xlink:href="#DejaVuSans-31" transform="translate(186.855469 38.965625) scale(0.7)"/>
      </g>
     </g>
    </g>
    <g id="xtick_2">
     <g id="line2d_2">
      <g>
       <use xlink:href="#m2f765629da" x="304.804618" y="314.728" style="stroke: #000000; stroke-width: 0.8"/>
      </g>
     </g>
     <g id="text_2">
      <!-- $\mathdefault{10^{0}}$ -->
      <g transform="translate(296.004618 329.326437) scale(0.1 -0.1)">
       <use xlink:href="#DejaVuSans-31" transform="translate(0 0.765625)"/>
       <use xlink:href="#DejaVuSans-30" transform="translate(63.623047 0.765625)"/>
       <use xlink:href="#DejaVuSans-30" transform="translate(128.203125 39.046875) scale(0.7)"/>
      </g>
     </g>
    </g>
    <g id="xtick_3">
     <g id="line2d_3">
      <g>
       <use xlink:href="#m2f765629da" x="460.889287" y="314.728" style="stroke: #000000; stroke-width: 0.8"/>
      </g>
     </g>
     <g id="text_3">
      <!-- $\mathdefault{10^{1}}$ -->
      <g transform="translate(452.089287 329.326437) scale(0.1 -0.1)">
       <use xlink:href="#DejaVuSans-31" transform="translate(0 0.684375)"/>
       <use xlink:href="#DejaVuSans-30" transform="translate(63.623047 0.684375)"/>
       <use xlink:href="#DejaVuSans-31" transform="translate(128.203125 38.965625) scale(0.7)"/>
      </g>
     </g>
    </g>
    <g id="xtick_4">
     <g id="line2d_4">
      <defs>
       <path id="mf0b2e1394e" d="M 0 0 
L 0 2 
" style="stroke: #000000; stroke-width: 0.6"/>
      </defs>
      <g>
       <use xlink:href="#mf0b2e1394e" x="67.106594" y="314.728" style="stroke: #000000; stroke-width: 0.6"/>
      </g>
     </g>
    </g>
    <g id="xtick_5">
     <g id="line2d_5">
      <g>
       <use xlink:href="#mf0b2e1394e" x="86.607615" y="314.728" style="stroke: #000000; stroke-width: 0.6"/>
      </g>
     </g>
    </g>
    <g id="xtick_6">
     <g id="line2d_6">
      <g>
       <use xlink:href="#mf0b2e1394e" x="101.733782" y="314.728" style="stroke: #000000; stroke-width: 0.6"/>
      </g>
     </g>
    </g>
    <g id="xtick_7">
     <g id="line2d_7">
      <g>
       <use xlink:href="#mf0b2e1394e" x="114.092761" y="314.728" style="stroke: #000000; stroke-width: 0.6"/>
      </g>
     </g>
    </g>
    <g id="xtick_8">
     <g id="line2d_8">
      <g>
       <use xlink:href="#mf0b2e1394e" x="124.542128" y="314.728" style="stroke: #000000; stroke-width: 0.6"/>
      </g>
     </g>
    </g>
    <g id="xtick_9">
     <g id="line2d_9">
      <g>
       <use xlink:href="#mf0b2e1394e" x="133.593782" y="314.728" style="stroke: #000000; stroke-width: 0.6"/>
      </g>
     </g>
    </g>
    <g id="xtick_10">
     <g id="line2d_10">
      <g>
       <use xlink:href="#mf0b2e1394e" x="141.577907" y="314.728" style="stroke: #000000; stroke-width: 0.6"/>
      </g>
     </g>
    </g>
    <g id="xtick_11">
     <g id="line2d_11">
      <g>
       <use xlink:href="#mf0b2e1394e" x="195.706117" y="314.728" style="stroke: #000000; stroke-width: 0.6"/>
      </g>
     </g>
    </g>
    <g id="xtick_12">
     <g id="line2d_12">
      <g>
       <use xlink:href="#mf0b2e1394e" x="223.191262" y="314.728" style="stroke: #000000; stroke-width: 0.6"/>
      </g>
     </g>
    </g>
    <g id="xtick_13">
     <g id="line2d_13">
      <g>
       <use xlink:href="#mf0b2e1394e" x="242.692284" y="314.728" style="stroke: #000000; stroke-width: 0.6"/>
      </g>
     </g>
    </g>
    <g id="xtick_14">
     <g id="line2d_14">
      <g>
       <use xlink:href="#mf0b2e1394e" x="257.818451" y="314.728" style="stroke: #000000; stroke-width: 0.6"/>
      </g>
     </g>
    </g>
    <g id="xtick_15">
     <g id="line2d_15">
      <g>
       <use xlink:href="#mf0b2e1394e" x="270.17743" y="314.728" style="stroke: #000000; stroke-width: 0.6"/>
      </g>
     </g>
    </g>
    <g id="xtick_16">
     <g id="line2d_16">
      <g>
       <use xlink:href="#mf0b2e1394e" x="280.626797" y="314.728" style="stroke: #000000; stroke-width: 0.6"/>
      </g>
     </g>
    </g>
    <g id="xtick_17">
     <g id="line2d_17">
      <g>
       <use xlink:href="#mf0b2e1394e" x="289.678451" y="314.728" style="stroke: #000000; stroke-width: 0.6"/>
      </g>
     </g>
    </g>
    <g id="xtick_18">
     <g id="line2d_18">
      <g>
       <use xlink:href="#mf0b2e1394e" x="297.662575" y="314.728" style="stroke: #000000; stroke-width: 0.6"/>
      </g>
     </g>
    </g>
    <g id="xtick_19">
     <g id="line2d_19">
      <g>
       <use xlink:href="#mf0b2e1394e" x="351.790785" y="314.728" style="stroke: #000000; stroke-width: 0.6"/>
      </g>
     </g>
    </g>
    <g id="xtick_20">
     <g id="line2d_20">
      <g>
       <use xlink:href="#mf0b2e1394e" x="379.275931" y="314.728" style="stroke: #000000; stroke-width: 0.6"/>
      </g>
     </g>
    </g>
    <g id="xtick_21">
     <g id="line2d_21">
      <g>
       <use xlink:href="#mf0b2e1394e" x="398.776953" y="314.728" style="stroke: #000000; stroke-width: 0.6"/>
      </g>
     </g>
    </g>
    <g id="xtick_22">
     <g id="line2d_22">
      <g>
       <use xlink:href="#mf0b2e1394e" x="413.90312" y="314.728" style="stroke: #000000; stroke-width: 0.6"/>
      </g>
     </g>
    </g>
    <g id="xtick_23">
     <g id="line2d_23">
      <g>
       <use xlink:href="#mf0b2e1394e" x="426.262098" y="314.728" style="stroke: #000000; stroke-width: 0.6"/>
      </g>
     </g>
    </g>
    <g id="xtick_24">
     <g id="line2d_24">
      <g>
       <use xlink:href="#mf0b2e1394e" x="436.711466" y="314.728" style="stroke: #000000; stroke-width: 0.6"/>
      </g>
     </g>
    </g>
    <g id="xtick_25">
     <g id="line2d_25">
      <g>
       <use xlink:href="#mf0b2e1394e" x="445.76312" y="314.728" style="stroke: #000000; stroke-width: 0.6"/>
      </g>
     </g>
    </g>
    <g id="xtick_26">
     <g id="line2d_26">
      <g>
       <use xlink:href="#mf0b2e1394e" x="453.747244" y="314.728" style="stroke: #000000; stroke-width: 0.6"/>
      </g>
     </g>
    </g>
    <g id="xtick_27">
     <g id="line2d_27">
      <g>
       <use xlink:href="#mf0b2e1394e" x="507.875454" y="314.728" style="stroke: #000000; stroke-width: 0.6"/>
      </g>
     </g>
    </g>
    <g id="xtick_28">
     <g id="line2d_28">
      <g>
       <use xlink:href="#mf0b2e1394e" x="535.3606" y="314.728" style="stroke: #000000; stroke-width: 0.6"/>
      </g>
     </g>
    </g>
    <g id="xtick_29">
     <g id="line2d_29">
      <g>
       <use xlink:href="#mf0b2e1394e" x="554.861621" y="314.728" style="stroke: #000000; stroke-width: 0.6"/>
      </g>
     </g>
    </g>
    <g id="text_4">
     <!-- Segment length (patches) -->
     <g transform="translate(242.719375 343.004562) scale(0.1 -0.1)">
      <defs>
       <path id="DejaVuSans-53" d="M 3425 4513 
L 3425 3897 
Q 3066 4069 2747 4153 
Q 2428 4238 2131 4238 
Q 1616 4238 1336 4038 
Q 1056 3838 1056 3469 
Q 1056 3159 1242 3001 
Q 1428 2844 1947 2747 
L 2328 2669 
Q 3034 2534 3370 2195 
Q 3706 1856 3706 1288 
Q 3706 609 3251 259 
Q 2797 -91 1919 -91 
Q 1588 -91 1214 -16 
Q 841 59 441 206 
L 441 856 
Q 825 641 1194 531 
Q 1563 422 1919 422 
Q 2459 422 2753 634 
Q 3047 847 3047 1241 
Q 3047 1584 2836 1778 
Q 2625 1972 2144 2069 
L 1759 2144 
Q 1053 2284 737 2584 
Q 422 2884 422 3419 
Q 422 4038 858 4394 
Q 1294 4750 2059 4750 
Q 2388 4750 2728 4690 
Q 3069 4631 3425 4513 
z
" transform="scale(0.015625)"/>
       <path id="DejaVuSans-65" d="M 3597 1894 
L 3597 1613 
L 953 1613 
Q 991 1019 1311 708 
Q 1631 397 2203 397 
Q 2534 397 2845 478 
Q 3156 559 3463 722 
L 3463 178 
Q 3153 47 2828 -22 
Q 2503 -91 2169 -91 
Q 1331 -91 842 396 
Q 353 884 353 1716 
Q 353 2575 817 3079 
Q 1281 3584 2069 3584 
Q 2775 3584 3186 3129 
Q 3597 2675 3597 1894 
z
M 3022 2063 
Q 3016 2534 2758 2815 
Q 2500 3097 2075 3097 
Q 1594 3097 1305 2825 
Q 1016 2553 972 2059 
L 3022 2063 
z
" transform="scale(0.015625)"/>
       <path id="DejaVuSans-67" d="M 2906 1791 
Q 2906 2416 2648 2759 
Q 2391 3103 1925 3103 
Q 1463 3103 1205 2759 
Q 947 2416 947 1791 
Q 947 1169 1205 825 
Q 1463 481 1925 481 
Q 2391 481 2648 825 
Q 2906 1169 2906 1791 
z
M 3481 434 
Q 3481 -459 3084 -895 
Q 2688 -1331 1869 -1331 
Q 1566 -1331 1297 -1286 
Q 1028 -1241 775 -1147 
L 775 -588 
Q 1028 -725 1275 -790 
Q 1522 -856 1778 -856 
Q 2344 -856 2625 -561 
Q 2906 -266 2906 331 
L 2906 616 
Q 2728 306 2450 153 
Q 2172 0 1784 0 
Q 1141 0 747 490 
Q 353 981 353 1791 
Q 353 2603 747 3093 
Q 1141 3584 1784 3584 
Q 2172 3584 2450 3431 
Q 2728 3278 2906 2969 
L 2906 3500 
L 3481 3500 
L 3481 434 
z
" transform="scale(0.015625)"/>
       <path id="DejaVuSans-6d" d="M 3328 2828 
Q 3544 3216 3844 3400 
Q 4144 3584 4550 3584 
Q 5097 3584 5394 3201 
Q 5691 2819 5691 2113 
L 5691 0 
L 5113 0 
L 5113 2094 
Q 5113 2597 4934 2840 
Q 4756 3084 4391 3084 
Q 3944 3084 3684 2787 
Q 3425 2491 3425 1978 
L 3425 0 
L 2847 0 
L 2847 2094 
Q 2847 2600 2669 2842 
Q 2491 3084 2119 3084 
Q 1678 3084 1418 2786 
Q 1159 2488 1159 1978 
L 1159 0 
L 581 0 
L 581 3500 
L 1159 3500 
L 1159 2956 
Q 1356 3278 1631 3431 
Q 1906 3584 2284 3584 
Q 2666 3584 2933 3390 
Q 3200 3197 3328 2828 
z
" transform="scale(0.015625)"/>
       <path id="DejaVuSans-6e" d="M 3513 2113 
L 3513 0 
L 2938 0 
L 2938 2094 
Q 2938 2591 2744 2837 
Q 2550 3084 2163 3084 
Q 1697 3084 1428 2787 
Q 1159 2491 1159 1978 
L 1159 0 
L 581 0 
L 581 3500 
L 1159 3500 
L 1159 2956 
Q 1366 3272 1645 3428 
Q 1925 3584 2291 3584 
Q 2894 3584 3203 3211 
Q 3513 2838 3513 2113 
z
" transform="scale(0.015625)"/>
       <path id="DejaVuSans-74" d="M 1172 4494 
L 1172 3500 
L 2356 3500 
L 2356 3053 
L 1172 3053 
L 1172 1153 
Q 1172 725 1289 603 
Q 1406 481 1766 481 
L 2356 481 
L 2356 0 
L 1766 0 
Q 1100 0 847 248 
Q 594 497 594 1153 
L 594 3053 
L 172 3053 
L 172 3500 
L 594 3500 
L 594 4494 
L 1172 4494 
z
" transform="scale(0.015625)"/>
       <path id="DejaVuSans-20" transform="scale(0.015625)"/>
       <path id="DejaVuSans-6c" d="M 603 4863 
L 1178 4863 
L 1178 0 
L 603 0 
L 603 4863 
z
" transform="scale(0.015625)"/>
       <path id="DejaVuSans-68" d="M 3513 2113 
L 3513 0 
L 2938 0 
L 2938 2094 
Q 2938 2591 2744 2837 
Q 2550 3084 2163 3084 
Q 1697 3084 1428 2787 
Q 1159 2491 1159 1978 
L 1159 0 
L 581 0 
L 581 4863 
L 1159 4863 
L 1159 2956 
Q 1366 3272 1645 3428 
Q 1925 3584 2291 3584 
Q 2894 3584 3203 3211 
Q 3513 2838 3513 2113 
z
" transform="scale(0.015625)"/>
       <path id="DejaVuSans-28" d="M 1984 4856 
Q 1566 4138 1362 3434 
Q 1159 2731 1159 2009 
Q 1159 1288 1364 580 
Q 1569 -128 1984 -844 
L 1484 -844 
Q 1016 -109 783 600 
Q 550 1309 550 2009 
Q 550 2706 781 3412 
Q 1013 4119 1484 4856 
L 1984 4856 
z
" transform="scale(0.015625)"/>
       <path id="DejaVuSans-70" d="M 1159 525 
L 1159 -1331 
L 581 -1331 
L 581 3500 
L 1159 3500 
L 1159 2969 
Q 1341 3281 1617 3432 
Q 1894 3584 2278 3584 
Q 2916 3584 3314 3078 
Q 3713 2572 3713 1747 
Q 3713 922 3314 415 
Q 2916 -91 2278 -91 
Q 1894 -91 1617 61 
Q 1341 213 1159 525 
z
M 3116 1747 
Q 3116 2381 2855 2742 
Q 2594 3103 2138 3103 
Q 1681 3103 1420 2742 
Q 1159 2381 1159 1747 
Q 1159 1113 1420 752 
Q 1681 391 2138 391 
Q 2594 391 2855 752 
Q 3116 1113 3116 1747 
z
" transform="scale(0.015625)"/>
       <path id="DejaVuSans-61" d="M 2194 1759 
Q 1497 1759 1228 1600 
Q 959 1441 959 1056 
Q 959 750 1161 570 
Q 1363 391 1709 391 
Q 2188 391 2477 730 
Q 2766 1069 2766 1631 
L 2766 1759 
L 2194 1759 
z
M 3341 1997 
L 3341 0 
L 2766 0 
L 2766 531 
Q 2569 213 2275 61 
Q 1981 -91 1556 -91 
Q 1019 -91 701 211 
Q 384 513 384 1019 
Q 384 1609 779 1909 
Q 1175 2209 1959 2209 
L 2766 2209 
L 2766 2266 
Q 2766 2663 2505 2880 
Q 2244 3097 1772 3097 
Q 1472 3097 1187 3025 
Q 903 2953 641 2809 
L 641 3341 
Q 956 3463 1253 3523 
Q 1550 3584 1831 3584 
Q 2591 3584 2966 3190 
Q 3341 2797 3341 1997 
z
" transform="scale(0.015625)"/>
       <path id="DejaVuSans-63" d="M 3122 3366 
L 3122 2828 
Q 2878 2963 2633 3030 
Q 2388 3097 2138 3097 
Q 1578 3097 1268 2742 
Q 959 2388 959 1747 
Q 959 1106 1268 751 
Q 1578 397 2138 397 
Q 2388 397 2633 464 
Q 2878 531 3122 666 
L 3122 134 
Q 2881 22 2623 -34 
Q 2366 -91 2075 -91 
Q 1284 -91 818 406 
Q 353 903 353 1747 
Q 353 2603 823 3093 
Q 1294 3584 2113 3584 
Q 2378 3584 2631 3529 
Q 2884 3475 3122 3366 
z
" transform="scale(0.015625)"/>
       <path id="DejaVuSans-73" d="M 2834 3397 
L 2834 2853 
Q 2591 2978 2328 3040 
Q 2066 3103 1784 3103 
Q 1356 3103 1142 2972 
Q 928 2841 928 2578 
Q 928 2378 1081 2264 
Q 1234 2150 1697 2047 
L 1894 2003 
Q 2506 1872 2764 1633 
Q 3022 1394 3022 966 
Q 3022 478 2636 193 
Q 2250 -91 1575 -91 
Q 1294 -91 989 -36 
Q 684 19 347 128 
L 347 722 
Q 666 556 975 473 
Q 1284 391 1588 391 
Q 1994 391 2212 530 
Q 2431 669 2431 922 
Q 2431 1156 2273 1281 
Q 2116 1406 1581 1522 
L 1381 1569 
Q 847 1681 609 1914 
Q 372 2147 372 2553 
Q 372 3047 722 3315 
Q 1072 3584 1716 3584 
Q 2034 3584 2315 3537 
Q 2597 3491 2834 3397 
z
" transform="scale(0.015625)"/>
       <path id="DejaVuSans-29" d="M 513 4856 
L 1013 4856 
Q 1481 4119 1714 3412 
Q 1947 2706 1947 2009 
Q 1947 1309 1714 600 
Q 1481 -109 1013 -844 
L 513 -844 
Q 928 -128 1133 580 
Q 1338 1288 1338 2009 
Q 1338 2731 1133 3434 
Q 928 4138 513 4856 
z
" transform="scale(0.015625)"/>
      </defs>
      <use xlink:href="#DejaVuSans-53"/>
      <use xlink:href="#DejaVuSans-65" transform="translate(63.476562 0)"/>
      <use xlink:href="#DejaVuSans-67" transform="translate(125 0)"/>
      <use xlink:href="#DejaVuSans-6d" transform="translate(188.476562 0)"/>
      <use xlink:href="#DejaVuSans-65" transform="translate(285.888672 0)"/>
      <use xlink:href="#DejaVuSans-6e" transform="translate(347.412109 0)"/>
      <use xlink:href="#DejaVuSans-74" transform="translate(410.791016 0)"/>
      <use xlink:href="#DejaVuSans-20" transform="translate(450 0)"/>
      <use xlink:href="#DejaVuSans-6c" transform="translate(481.787109 0)"/>
      <use xlink:href="#DejaVuSans-65" transform="translate(509.570312 0)"/>
      <use xlink:href="#DejaVuSans-6e" transform="translate(571.09375 0)"/>
      <use xlink:href="#DejaVuSans-67" transform="translate(634.472656 0)"/>
      <use xlink:href="#DejaVuSans-74" transform="translate(697.949219 0)"/>
      <use xlink:href="#DejaVuSans-68" transform="translate(737.158203 0)"/>
      <use xlink:href="#DejaVuSans-20" transform="translate(800.537109 0)"/>
      <use xlink:href="#DejaVuSans-28" transform="translate(832.324219 0)"/>
      <use xlink:href="#DejaVuSans-70" transform="translate(871.337891 0)"/>
      <use xlink:href="#DejaVuSans-61" transform="translate(934.814453 0)"/>
      <use xlink:href="#DejaVuSans-74" transform="translate(996.09375 0)"/>
      <use xlink:href="#DejaVuSans-63" transform="translate(1035.302734 0)"/>
      <use xlink:href="#DejaVuSans-68" transform="translate(1090.283203 0)"/>
      <use xlink:href="#DejaVuSans-65" transform="translate(1153.662109 0)"/>
      <use xlink:href="#DejaVuSans-73" transform="translate(1215.185547 0)"/>
      <use xlink:href="#DejaVuSans-29" transform="translate(1267.285156 0)"/>
     </g>
    </g>
   </g>
   <g id="matplotlib.axis_2">
    <g id="ytick_1">
     <g id="line2d_30">
      <defs>
       <path id="m2ed310025b" d="M 0 0 
L -3.5 0 
" style="stroke: #000000; stroke-width: 0.8"/>
      </defs>
      <g>
       <use xlink:href="#m2ed310025b" x="50.87" y="314.728" style="stroke: #000000; stroke-width: 0.8"/>
      </g>
     </g>
     <g id="text_5">
      <!-- 0 -->
      <g transform="translate(37.5075 318.527219) scale(0.1 -0.1)">
       <use xlink:href="#DejaVuSans-30"/>
      </g>
     </g>
    </g>
    <g id="ytick_2">
     <g id="line2d_31">
      <g>
       <use xlink:href="#m2ed310025b" x="50.87" y="252.914933" style="stroke: #000000; stroke-width: 0.8"/>
      </g>
     </g>
     <g id="text_6">
      <!-- 200 -->
      <g transform="translate(24.7825 256.714152) scale(0.1 -0.1)">
       <defs>
        <path id="DejaVuSans-32" d="M 1228 531 
L 3431 531 
L 3431 0 
L 469 0 
L 469 531 
Q 828 903 1448 1529 
Q 2069 2156 2228 2338 
Q 2531 2678 2651 2914 
Q 2772 3150 2772 3378 
Q 2772 3750 2511 3984 
Q 2250 4219 1831 4219 
Q 1534 4219 1204 4116 
Q 875 4013 500 3803 
L 500 4441 
Q 881 4594 1212 4672 
Q 1544 4750 1819 4750 
Q 2544 4750 2975 4387 
Q 3406 4025 3406 3419 
Q 3406 3131 3298 2873 
Q 3191 2616 2906 2266 
Q 2828 2175 2409 1742 
Q 1991 1309 1228 531 
z
" transform="scale(0.015625)"/>
       </defs>
       <use xlink:href="#DejaVuSans-32"/>
       <use xlink:href="#DejaVuSans-30" transform="translate(63.623047 0)"/>
       <use xlink:href="#DejaVuSans-30" transform="translate(127.246094 0)"/>
      </g>
     </g>
    </g>
    <g id="ytick_3">
     <g id="line2d_32">
      <g>
       <use xlink:href="#m2ed310025b" x="50.87" y="191.101866" style="stroke: #000000; stroke-width: 0.8"/>
      </g>
     </g>
     <g id="text_7">
      <!-- 400 -->
      <g transform="translate(24.7825 194.901085) scale(0.1 -0.1)">
       <defs>
        <path id="DejaVuSans-34" d="M 2419 4116 
L 825 1625 
L 2419 1625 
L 2419 4116 
z
M 2253 4666 
L 3047 4666 
L 3047 1625 
L 3713 1625 
L 3713 1100 
L 3047 1100 
L 3047 0 
L 2419 0 
L 2419 1100 
L 313 1100 
L 313 1709 
L 2253 4666 
z
" transform="scale(0.015625)"/>
       </defs>
       <use xlink:href="#DejaVuSans-34"/>
       <use xlink:href="#DejaVuSans-30" transform="translate(63.623047 0)"/>
       <use xlink:href="#DejaVuSans-30" transform="translate(127.246094 0)"/>
      </g>
     </g>
    </g>
    <g id="ytick_4">
     <g id="line2d_33">
      <g>
       <use xlink:href="#m2ed310025b" x="50.87" y="129.288799" style="stroke: #000000; stroke-width: 0.8"/>
      </g>
     </g>
     <g id="text_8">
      <!-- 600 -->
      <g transform="translate(24.7825 133.088018) scale(0.1 -0.1)">
       <defs>
        <path id="DejaVuSans-36" d="M 2113 2584 
Q 1688 2584 1439 2293 
Q 1191 2003 1191 1497 
Q 1191 994 1439 701 
Q 1688 409 2113 409 
Q 2538 409 2786 701 
Q 3034 994 3034 1497 
Q 3034 2003 2786 2293 
Q 2538 2584 2113 2584 
z
M 3366 4563 
L 3366 3988 
Q 3128 4100 2886 4159 
Q 2644 4219 2406 4219 
Q 1781 4219 1451 3797 
Q 1122 3375 1075 2522 
Q 1259 2794 1537 2939 
Q 1816 3084 2150 3084 
Q 2853 3084 3261 2657 
Q 3669 2231 3669 1497 
Q 3669 778 3244 343 
Q 2819 -91 2113 -91 
Q 1303 -91 875 529 
Q 447 1150 447 2328 
Q 447 3434 972 4092 
Q 1497 4750 2381 4750 
Q 2619 4750 2861 4703 
Q 3103 4656 3366 4563 
z
" transform="scale(0.015625)"/>
       </defs>
       <use xlink:href="#DejaVuSans-36"/>
       <use xlink:href="#DejaVuSans-30" transform="translate(63.623047 0)"/>
       <use xlink:href="#DejaVuSans-30" transform="translate(127.246094 0)"/>
      </g>
     </g>
    </g>
    <g id="ytick_5">
     <g id="line2d_34">
      <g>
       <use xlink:href="#m2ed310025b" x="50.87" y="67.475732" style="stroke: #000000; stroke-width: 0.8"/>
      </g>
     </g>
     <g id="text_9">
      <!-- 800 -->
      <g transform="translate(24.7825 71.274951) scale(0.1 -0.1)">
       <defs>
        <path id="DejaVuSans-38" d="M 2034 2216 
Q 1584 2216 1326 1975 
Q 1069 1734 1069 1313 
Q 1069 891 1326 650 
Q 1584 409 2034 409 
Q 2484 409 2743 651 
Q 3003 894 3003 1313 
Q 3003 1734 2745 1975 
Q 2488 2216 2034 2216 
z
M 1403 2484 
Q 997 2584 770 2862 
Q 544 3141 544 3541 
Q 544 4100 942 4425 
Q 1341 4750 2034 4750 
Q 2731 4750 3128 4425 
Q 3525 4100 3525 3541 
Q 3525 3141 3298 2862 
Q 3072 2584 2669 2484 
Q 3125 2378 3379 2068 
Q 3634 1759 3634 1313 
Q 3634 634 3220 271 
Q 2806 -91 2034 -91 
Q 1263 -91 848 271 
Q 434 634 434 1313 
Q 434 1759 690 2068 
Q 947 2378 1403 2484 
z
M 1172 3481 
Q 1172 3119 1398 2916 
Q 1625 2713 2034 2713 
Q 2441 2713 2670 2916 
Q 2900 3119 2900 3481 
Q 2900 3844 2670 4047 
Q 2441 4250 2034 4250 
Q 1625 4250 1398 4047 
Q 1172 3844 1172 3481 
z
" transform="scale(0.015625)"/>
       </defs>
       <use xlink:href="#DejaVuSans-38"/>
       <use xlink:href="#DejaVuSans-30" transform="translate(63.623047 0)"/>
       <use xlink:href="#DejaVuSans-30" transform="translate(127.246094 0)"/>
      </g>
     </g>
    </g>
    <g id="text_10">
     <!-- Count -->
     <g transform="translate(18.702813 185.652437) rotate(-90) scale(0.1 -0.1)">
      <defs>
       <path id="DejaVuSans-43" d="M 4122 4306 
L 4122 3641 
Q 3803 3938 3442 4084 
Q 3081 4231 2675 4231 
Q 1875 4231 1450 3742 
Q 1025 3253 1025 2328 
Q 1025 1406 1450 917 
Q 1875 428 2675 428 
Q 3081 428 3442 575 
Q 3803 722 4122 1019 
L 4122 359 
Q 3791 134 3420 21 
Q 3050 -91 2638 -91 
Q 1578 -91 968 557 
Q 359 1206 359 2328 
Q 359 3453 968 4101 
Q 1578 4750 2638 4750 
Q 3056 4750 3426 4639 
Q 3797 4528 4122 4306 
z
" transform="scale(0.015625)"/>
       <path id="DejaVuSans-6f" d="M 1959 3097 
Q 1497 3097 1228 2736 
Q 959 2375 959 1747 
Q 959 1119 1226 758 
Q 1494 397 1959 397 
Q 2419 397 2687 759 
Q 2956 1122 2956 1747 
Q 2956 2369 2687 2733 
Q 2419 3097 1959 3097 
z
M 1959 3584 
Q 2709 3584 3137 3096 
Q 3566 2609 3566 1747 
Q 3566 888 3137 398 
Q 2709 -91 1959 -91 
Q 1206 -91 779 398 
Q 353 888 353 1747 
Q 353 2609 779 3096 
Q 1206 3584 1959 3584 
z
" transform="scale(0.015625)"/>
       <path id="DejaVuSans-75" d="M 544 1381 
L 544 3500 
L 1119 3500 
L 1119 1403 
Q 1119 906 1312 657 
Q 1506 409 1894 409 
Q 2359 409 2629 706 
Q 2900 1003 2900 1516 
L 2900 3500 
L 3475 3500 
L 3475 0 
L 2900 0 
L 2900 538 
Q 2691 219 2414 64 
Q 2138 -91 1772 -91 
Q 1169 -91 856 284 
Q 544 659 544 1381 
z
M 1991 3584 
L 1991 3584 
z
" transform="scale(0.015625)"/>
      </defs>
      <use xlink:href="#DejaVuSans-43"/>
      <use xlink:href="#DejaVuSans-6f" transform="translate(69.824219 0)"/>
      <use xlink:href="#DejaVuSans-75" transform="translate(131.005859 0)"/>
      <use xlink:href="#DejaVuSans-6e" transform="translate(194.384766 0)"/>
      <use xlink:href="#DejaVuSans-74" transform="translate(257.763672 0)"/>
     </g>
    </g>
   </g>
   <g id="patch_42">
    <path d="M 50.87 314.728 
L 50.87 26.88 
" style="fill: none; stroke: #000000; stroke-width: 0.8; stroke-linejoin: miter; stroke-linecap: square"/>
   </g>
   <g id="patch_43">
    <path d="M 565.2 314.728 
L 565.2 26.88 
" style="fill: none; stroke: #000000; stroke-width: 0.8; stroke-linejoin: miter; stroke-linecap: square"/>
   </g>
   <g id="patch_44">
    <path d="M 50.87 314.728 
L 565.2 314.728 
" style="fill: none; stroke: #000000; stroke-width: 0.8; stroke-linejoin: miter; stroke-linecap: square"/>
   </g>
   <g id="patch_45">
    <path d="M 50.87 26.88 
L 565.2 26.88 
" style="fill: none; stroke: #000000; stroke-width: 0.8; stroke-linejoin: miter; stroke-linecap: square"/>
   </g>
   <g id="text_11">
    <!-- babel1: ground-truth segment length (patch_size=30 frames) -->
    <g transform="translate(122.56375 20.88) scale(0.12 -0.12)">
     <defs>
      <path id="DejaVuSans-62" d="M 3116 1747 
Q 3116 2381 2855 2742 
Q 2594 3103 2138 3103 
Q 1681 3103 1420 2742 
Q 1159 2381 1159 1747 
Q 1159 1113 1420 752 
Q 1681 391 2138 391 
Q 2594 391 2855 752 
Q 3116 1113 3116 1747 
z
M 1159 2969 
Q 1341 3281 1617 3432 
Q 1894 3584 2278 3584 
Q 2916 3584 3314 3078 
Q 3713 2572 3713 1747 
Q 3713 922 3314 415 
Q 2916 -91 2278 -91 
Q 1894 -91 1617 61 
Q 1341 213 1159 525 
L 1159 0 
L 581 0 
L 581 4863 
L 1159 4863 
L 1159 2969 
z
" transform="scale(0.015625)"/>
      <path id="DejaVuSans-3a" d="M 750 794 
L 1409 794 
L 1409 0 
L 750 0 
L 750 794 
z
M 750 3309 
L 1409 3309 
L 1409 2516 
L 750 2516 
L 750 3309 
z
" transform="scale(0.015625)"/>
      <path id="DejaVuSans-72" d="M 2631 2963 
Q 2534 3019 2420 3045 
Q 2306 3072 2169 3072 
Q 1681 3072 1420 2755 
Q 1159 2438 1159 1844 
L 1159 0 
L 581 0 
L 581 3500 
L 1159 3500 
L 1159 2956 
Q 1341 3275 1631 3429 
Q 1922 3584 2338 3584 
Q 2397 3584 2469 3576 
Q 2541 3569 2628 3553 
L 2631 2963 
z
" transform="scale(0.015625)"/>
      <path id="DejaVuSans-64" d="M 2906 2969 
L 2906 4863 
L 3481 4863 
L 3481 0 
L 2906 0 
L 2906 525 
Q 2725 213 2448 61 
Q 2172 -91 1784 -91 
Q 1150 -91 751 415 
Q 353 922 353 1747 
Q 353 2572 751 3078 
Q 1150 3584 1784 3584 
Q 2172 3584 2448 3432 
Q 2725 3281 2906 2969 
z
M 947 1747 
Q 947 1113 1208 752 
Q 1469 391 1925 391 
Q 2381 391 2643 752 
Q 2906 1113 2906 1747 
Q 2906 2381 2643 2742 
Q 2381 3103 1925 3103 
Q 1469 3103 1208 2742 
Q 947 2381 947 1747 
z
" transform="scale(0.015625)"/>
      <path id="DejaVuSans-2d" d="M 313 2009 
L 1997 2009 
L 1997 1497 
L 313 1497 
L 313 2009 
z
" transform="scale(0.015625)"/>
      <path id="DejaVuSans-5f" d="M 3263 -1063 
L 3263 -1509 
L -63 -1509 
L -63 -1063 
L 3263 -1063 
z
" transform="scale(0.015625)"/>
      <path id="DejaVuSans-69" d="M 603 3500 
L 1178 3500 
L 1178 0 
L 603 0 
L 603 3500 
z
M 603 4863 
L 1178 4863 
L 1178 4134 
L 603 4134 
L 603 4863 
z
" transform="scale(0.015625)"/>
      <path id="DejaVuSans-7a" d="M 353 3500 
L 3084 3500 
L 3084 2975 
L 922 459 
L 3084 459 
L 3084 0 
L 275 0 
L 275 525 
L 2438 3041 
L 353 3041 
L 353 3500 
z
" transform="scale(0.015625)"/>
      <path id="DejaVuSans-3d" d="M 678 2906 
L 4684 2906 
L 4684 2381 
L 678 2381 
L 678 2906 
z
M 678 1631 
L 4684 1631 
L 4684 1100 
L 678 1100 
L 678 1631 
z
" transform="scale(0.015625)"/>
      <path id="DejaVuSans-33" d="M 2597 2516 
Q 3050 2419 3304 2112 
Q 3559 1806 3559 1356 
Q 3559 666 3084 287 
Q 2609 -91 1734 -91 
Q 1441 -91 1130 -33 
Q 819 25 488 141 
L 488 750 
Q 750 597 1062 519 
Q 1375 441 1716 441 
Q 2309 441 2620 675 
Q 2931 909 2931 1356 
Q 2931 1769 2642 2001 
Q 2353 2234 1838 2234 
L 1294 2234 
L 1294 2753 
L 1863 2753 
Q 2328 2753 2575 2939 
Q 2822 3125 2822 3475 
Q 2822 3834 2567 4026 
Q 2313 4219 1838 4219 
Q 1578 4219 1281 4162 
Q 984 4106 628 3988 
L 628 4550 
Q 988 4650 1302 4700 
Q 1616 4750 1894 4750 
Q 2613 4750 3031 4423 
Q 3450 4097 3450 3541 
Q 3450 3153 3228 2886 
Q 3006 2619 2597 2516 
z
" transform="scale(0.015625)"/>
      <path id="DejaVuSans-66" d="M 2375 4863 
L 2375 4384 
L 1825 4384 
Q 1516 4384 1395 4259 
Q 1275 4134 1275 3809 
L 1275 3500 
L 2222 3500 
L 2222 3053 
L 1275 3053 
L 1275 0 
L 697 0 
L 697 3053 
L 147 3053 
L 147 3500 
L 697 3500 
L 697 3744 
Q 697 4328 969 4595 
Q 1241 4863 1831 4863 
L 2375 4863 
z
" transform="scale(0.015625)"/>
     </defs>
     <use xlink:href="#DejaVuSans-62"/>
     <use xlink:href="#DejaVuSans-61" transform="translate(63.476562 0)"/>
     <use xlink:href="#DejaVuSans-62" transform="translate(124.755859 0)"/>
     <use xlink:href="#DejaVuSans-65" transform="translate(188.232422 0)"/>
     <use xlink:href="#DejaVuSans-6c" transform="translate(249.755859 0)"/>
     <use xlink:href="#DejaVuSans-31" transform="translate(277.539062 0)"/>
     <use xlink:href="#DejaVuSans-3a" transform="translate(341.162109 0)"/>
     <use xlink:href="#DejaVuSans-20" transform="translate(374.853516 0)"/>
     <use xlink:href="#DejaVuSans-67" transform="translate(406.640625 0)"/>
     <use xlink:href="#DejaVuSans-72" transform="translate(470.117188 0)"/>
     <use xlink:href="#DejaVuSans-6f" transform="translate(508.980469 0)"/>
     <use xlink:href="#DejaVuSans-75" transform="translate(570.162109 0)"/>
     <use xlink:href="#DejaVuSans-6e" transform="translate(633.541016 0)"/>
     <use xlink:href="#DejaVuSans-64" transform="translate(696.919922 0)"/>
     <use xlink:href="#DejaVuSans-2d" transform="translate(760.396484 0)"/>
     <use xlink:href="#DejaVuSans-74" transform="translate(796.480469 0)"/>
     <use xlink:href="#DejaVuSans-72" transform="translate(835.689453 0)"/>
     <use xlink:href="#DejaVuSans-75" transform="translate(876.802734 0)"/>
     <use xlink:href="#DejaVuSans-74" transform="translate(940.181641 0)"/>
     <use xlink:href="#DejaVuSans-68" transform="translate(979.390625 0)"/>
     <use xlink:href="#DejaVuSans-20" transform="translate(1042.769531 0)"/>
     <use xlink:href="#DejaVuSans-73" transform="translate(1074.556641 0)"/>
     <use xlink:href="#DejaVuSans-65" transform="translate(1126.65625 0)"/>
     <use xlink:href="#DejaVuSans-67" transform="translate(1188.179688 0)"/>
     <use xlink:href="#DejaVuSans-6d" transform="translate(1251.65625 0)"/>
     <use xlink:href="#DejaVuSans-65" transform="translate(1349.068359 0)"/>
     <use xlink:href="#DejaVuSans-6e" transform="translate(1410.591797 0)"/>
     <use xlink:href="#DejaVuSans-74" transform="translate(1473.970703 0)"/>
     <use xlink:href="#DejaVuSans-20" transform="translate(1513.179688 0)"/>
     <use xlink:href="#DejaVuSans-6c" transform="translate(1544.966797 0)"/>
     <use xlink:href="#DejaVuSans-65" transform="translate(1572.75 0)"/>
     <use xlink:href="#DejaVuSans-6e" transform="translate(1634.273438 0)"/>
     <use xlink:href="#DejaVuSans-67" transform="translate(1697.652344 0)"/>
     <use xlink:href="#DejaVuSans-74" transform="translate(1761.128906 0)"/>
     <use xlink:href="#DejaVuSans-68" transform="translate(1800.337891 0)"/>
     <use xlink:href="#DejaVuSans-20" transform="translate(1863.716797 0)"/>
     <use xlink:href="#DejaVuSans-28" transform="translate(1895.503906 0)"/>
     <use xlink:href="#DejaVuSans-70" transform="translate(1934.517578 0)"/>
     <use xlink:href="#DejaVuSans-61" transform="translate(1997.994141 0)"/>
     <use xlink:href="#DejaVuSans-74" transform="translate(2059.273438 0)"/>
     <use xlink:href="#DejaVuSans-63" transform="translate(2098.482422 0)"/>
     <use xlink:href="#DejaVuSans-68" transform="translate(2153.462891 0)"/>
     <use xlink:href="#DejaVuSans-5f" transform="translate(2216.841797 0)"/>
     <use xlink:href="#DejaVuSans-73" transform="translate(2266.841797 0)"/>
     <use xlink:href="#DejaVuSans-69" transform="translate(2318.941406 0)"/>
     <use xlink:href="#DejaVuSans-7a" transform="translate(2346.724609 0)"/>
     <use xlink:href="#DejaVuSans-65" transform="translate(2399.214844 0)"/>
     <use xlink:href="#DejaVuSans-3d" transform="translate(2460.738281 0)"/>
     <use xlink:href="#DejaVuSans-33" transform="translate(2544.527344 0)"/>
     <use xlink:href="#DejaVuSans-30" transform="translate(2608.150391 0)"/>
     <use xlink:href="#DejaVuSans-20" transform="translate(2671.773438 0)"/>
     <use xlink:href="#DejaVuSans-66" transform="translate(2703.560547 0)"/>
     <use xlink:href="#DejaVuSans-72" transform="translate(2738.765625 0)"/>
     <use xlink:href="#DejaVuSans-61" transform="translate(2779.878906 0)"/>
     <use xlink:href="#DejaVuSans-6d" transform="translate(2841.158203 0)"/>
     <use xlink:href="#DejaVuSans-65" transform="translate(2938.570312 0)"/>
     <use xlink:href="#DejaVuSans-73" transform="translate(3000.09375 0)"/>
     <use xlink:href="#DejaVuSans-29" transform="translate(3052.193359 0)"/>
    </g>
   </g>
  </g>
 </g>
 <defs>
  <clipPath id="p62bf6f1fa2">
   <rect x="50.87" y="26.88" width="514.33" height="287.848"/>
  </clipPath>
 </defs>
</svg>
